<svg id="sec_SiteBlindado" xmlns="http://www.w3.org/2000/svg" xmlns:xlink="http://www.w3.org/1999/xlink" width="92.475"
     height="20.691" viewBox="0 0 92.475 20.691">
  <defs>
    <style>
      .cls-1 {
      fill: #050606;
      }

      .cls-1, .cls-2, .cls-3, .cls-4, .cls-5, .cls-6, .cls-7 {
      fill-rule: evenodd;
      }

      .cls-2 {
      fill: #4aa835;
      }

      .cls-3 {
      fill: url(#radial-gradient);
      }

      .cls-4 {
      fill: url(#radial-gradient-2);
      }

      .cls-5 {
      fill: url(#radial-gradient-3);
      }

      .cls-6 {
      fill: url(#radial-gradient-4);
      }

      .cls-7 {
      fill: #fff;
      }
    </style>
    <radialGradient id="radial-gradient" cx="1012.127" cy="-10182.921" r="8.821"
                    gradientTransform="matrix(1.078, 0, 0, -1.163, -42.867, -22717.943)" gradientUnits="userSpaceOnUse">
      <stop offset="0" stop-color="#64af31"/>
      <stop offset="0.773" stop-color="#4aa835"/>
      <stop offset="1" stop-color="#4aa835"/>
    </radialGradient>
    <radialGradient id="radial-gradient-2" cx="1000.07" cy="-10138.631" r="7.79"
                    gradientTransform="matrix(1.074, 0, 0, -1.154, -38.811, -22528.429)" gradientUnits="userSpaceOnUse">
      <stop offset="0" stop-color="#4aa835"/>
      <stop offset="0.908" stop-color="#2c8835"/>
      <stop offset="1" stop-color="#2c8835"/>
    </radialGradient>
    <radialGradient id="radial-gradient-3" cx="3574.732" cy="-15313.747" r="5.726"
                    gradientTransform="matrix(1.434, 0, 0, -2.057, -1345.022, -47856.511)"
                    xlink:href="#radial-gradient-2"/>
    <radialGradient id="radial-gradient-4" cx="3682.621" cy="-15358.827" r="5.723"
                    gradientTransform="matrix(1.438, 0, 0, -2.067, -1397.102, -48142.202)"
                    xlink:href="#radial-gradient"/>
  </defs>
  <g id="logo-site-blindado">
    <g id="Group_74" data-name="Group 74">
      <g id="Group_73" data-name="Group 73">
        <g id="Group">
          <path id="Shape" class="cls-1"
                d="M547.569,413.4a2.636,2.636,0,0,1-2.6,2.285h-87.3a2.631,2.631,0,0,1-2.58-2.285V403.083a2.626,2.626,0,0,1,2.561-2.285h87.334a2.612,2.612,0,0,1,2.561,2.285V413.4Z"
                transform="translate(-455.094 -397.887)"/>
          <g id="Group_72" data-name="Group 72" transform="translate(3.343)">
            <g id="Group_70" data-name="Group 70">
              <path id="Path_147" data-name="Path 147" class="cls-2"
                    d="M473.1,412.846a15.725,15.725,0,0,0,2.966-12.971v-.019h-.019a23.717,23.717,0,0,0-7.609-2.376,22.956,22.956,0,0,0-7.591,2.376h-.019v.019a15.8,15.8,0,0,0,3,12.971,16.485,16.485,0,0,0,4.624,4.109h.037a16.948,16.948,0,0,0,4.607-4.109Z"
                    transform="translate(-460.095 -396.872)"/>
              <g id="Group_69" data-name="Group 69">
                <path id="Path_148" data-name="Path 148" class="cls-3"
                      d="M460.253,399.146a18.608,18.608,0,0,0-.129,6.357c.037.2.018.11.018.11h8.144V396.6a24.255,24.255,0,0,0-8.033,2.542Z"
                      transform="translate(-459.91 -396.604)"/>
                <path id="Path_149" data-name="Path 149" class="cls-4"
                      d="M479.978,399.146a18.27,18.27,0,0,1,.092,6.467h-8.143V396.6a24.28,24.28,0,0,1,8.052,2.542Z"
                      transform="translate(-463.587 -396.604)"/>
                <path id="Path_150" data-name="Path 150" class="cls-5"
                      d="M468.388,421.267V409.586h-8.144c1.253,7.886,8.144,11.681,8.144,11.681Z"
                      transform="translate(-460.013 -400.576)"/>
                <path id="Path_151" data-name="Path 151" class="cls-6"
                      d="M479.551,411.852s.461-1.658.553-2.266h-8.125v11.681a17.8,17.8,0,0,0,7.572-9.416Z"
                      transform="translate(-463.603 -400.576)"/>
              </g>
            </g>
            <g id="Group_71" data-name="Group 71" transform="translate(19.909 6.209)">
              <path id="Path_152" data-name="Path 152" class="cls-7"
                    d="M488.856,412.152a3.435,3.435,0,0,0,1.437.314c.811,0,1.2-.387,1.2-.9,0-.59-.387-.866-1.124-1.308a2.724,2.724,0,0,1-1.658-2.248c0-1.29.94-2.377,2.764-2.377a3.143,3.143,0,0,1,1.382.295l-.276,1.345a2.182,2.182,0,0,0-1.124-.276c-.718,0-1.087.405-1.087.847,0,.479.258.737,1.216,1.253a2.6,2.6,0,0,1,1.584,2.3c0,1.474-1.179,2.451-2.893,2.451a3.979,3.979,0,0,1-1.677-.332l.258-1.364Z"
                    transform="translate(-488.598 -405.575)"/>
              <path id="Path_153" data-name="Path 153" class="cls-7" d="M498.338,405.71v8.07h-1.7v-8.07Z"
                    transform="translate(-491.06 -405.599)"/>
              <path id="Path_154" data-name="Path 154" class="cls-7"
                    d="M501.96,407.139h-1.548v-1.456h4.809v1.456h-1.566v6.615h-1.7Z"
                    transform="translate(-492.213 -405.591)"/>
              <path id="Path_155" data-name="Path 155" class="cls-7"
                    d="M512.32,410.224h-2.008V412.4h2.266v1.363h-3.961V405.71h3.814v1.363h-2.1v1.861h2.008v1.29Z"
                    transform="translate(-494.723 -405.599)"/>
              <path id="Path_156" data-name="Path 156" class="cls-7"
                    d="M518.97,405.8a9.857,9.857,0,0,1,1.935-.147,3.554,3.554,0,0,1,2.229.571,1.789,1.789,0,0,1,.664,1.455,1.888,1.888,0,0,1-1.271,1.769v.037a1.966,1.966,0,0,1,1.566,1.934,2.152,2.152,0,0,1-.645,1.585,3.85,3.85,0,0,1-2.874.811,11.764,11.764,0,0,1-1.584-.092V405.8Zm1.714,3.206h.368a1.091,1.091,0,0,0,1.087-1.143.934.934,0,0,0-.995-1.05,1.435,1.435,0,0,0-.442.055v2.138Zm0,3.574a2.2,2.2,0,0,0,.368.019,1.15,1.15,0,0,0,1.253-1.217,1.2,1.2,0,0,0-1.271-1.234h-.368v2.432Z"
                    transform="translate(-497.892 -405.583)"/>
              <path id="Path_157" data-name="Path 157" class="cls-7" d="M528.023,405.71h1.7v6.744h2.248v1.327h-3.943Z"
                    transform="translate(-500.662 -405.599)"/>
              <path id="Path_158" data-name="Path 158" class="cls-7" d="M536.833,405.71v8.07h-1.7v-8.07Z"
                    transform="translate(-502.839 -405.599)"/>
              <path id="Path_159" data-name="Path 159" class="cls-7"
                    d="M539.784,413.78v-8.07h1.566l1.345,3.169c.258.627.682,1.659.94,2.358h.018c-.055-.847-.166-2.248-.166-3.74V405.71h1.493v8.07h-1.566l-1.345-3.059a21.145,21.145,0,0,1-.884-2.432h-.019c.037.811.111,2.063.111,3.684V413.8h-1.493Z"
                    transform="translate(-504.261 -405.599)"/>
              <path id="Path_160" data-name="Path 160" class="cls-7"
                    d="M549.421,405.8a8.773,8.773,0,0,1,1.732-.147,3.551,3.551,0,0,1,2.432.718,4.013,4.013,0,0,1,1.142,3.261,4.3,4.3,0,0,1-1.216,3.409,3.826,3.826,0,0,1-2.671.774,12.98,12.98,0,0,1-1.4-.092V405.8Zm1.713,6.707a1.523,1.523,0,0,0,.295.018c.811,0,1.53-.737,1.53-2.966,0-1.658-.461-2.653-1.493-2.653a.97.97,0,0,0-.332.037v5.565Z"
                    transform="translate(-507.21 -405.583)"/>
              <path id="Path_161" data-name="Path 161" class="cls-7"
                    d="M559.431,411.937l-.387,1.843h-1.658l1.9-8.07h2.045l1.7,8.07h-1.659L561,411.937Zm1.419-1.235-.295-1.695c-.092-.5-.2-1.289-.294-1.824h-.037c-.092.534-.221,1.382-.313,1.843l-.332,1.676Z"
                    transform="translate(-509.647 -405.599)"/>
              <path id="Path_162" data-name="Path 162" class="cls-7"
                    d="M566.89,405.8a8.774,8.774,0,0,1,1.732-.147,3.551,3.551,0,0,1,2.432.718,4.013,4.013,0,0,1,1.142,3.261,4.3,4.3,0,0,1-1.216,3.409,3.826,3.826,0,0,1-2.671.774,12.979,12.979,0,0,1-1.4-.092V405.8Zm1.714,6.707a1.522,1.522,0,0,0,.295.018c.811,0,1.53-.737,1.53-2.966,0-1.658-.461-2.653-1.493-2.653a.97.97,0,0,0-.332.037v5.565Z"
                    transform="translate(-512.555 -405.583)"/>
              <path id="Path_163" data-name="Path 163" class="cls-7"
                    d="M581.067,409.549c0,3.04-1.16,4.274-2.837,4.274-1.99,0-2.763-1.935-2.763-4.164,0-2.211.94-4.109,2.893-4.109,2.119.019,2.708,2.156,2.708,4Zm-3.832.147c0,1.824.368,2.764,1.069,2.764.719,0,1-1.2,1-2.837,0-1.419-.239-2.69-1-2.69-.681,0-1.069,1.031-1.069,2.764Z"
                    transform="translate(-515.179 -405.55)"/>
            </g>
          </g>
        </g>
      </g>
    </g>
  </g>
</svg>
