<svg xmlns="http://www.w3.org/2000/svg" viewBox="0 0 243.3 115.3">
  <g class="cls-2">
  <!-- "teky" -->
    <path class="cls-3 te" fill="#ffffff" d="M60.87,113.38V99.21H51V59.53h9.85V46.77H51V28.35H35.5V46.77H28.35V59.53H35.5v45.61c0,5.54,2.7,8.24,8.38,8.24Zm38.34-39.6H86.46V59.53H99.21Zm41.11-45.43h-15.6v85h15.6ZM114.81,70.87V55c0-5.55-2.84-8.25-8.52-8.25H79.38c-5.81,0-8.51,2.7-8.51,8.25v50.12c0,5.54,2.7,8.24,8.51,8.24h26.91c5.68,0,8.52-2.7,8.52-8.24V95h-12l-2.13,4.25H86.46V85l20.1,0c5.55,0,8.25-2.84,8.25-8.51Zm-15.6,2.91H86.46V59.53H99.21Zm15.6-2.91V55c0-5.55-2.84-8.25-8.52-8.25H79.38c-5.81,0-8.51,2.7-8.51,8.25v50.12c0,5.54,2.7,8.24,8.51,8.24h26.91c5.68,0,8.52-2.7,8.52-8.24V95h-12l-2.13,4.25H86.46V85l20.1,0c5.55,0,8.25-2.84,8.25-8.51Z" transform="translate(-28.35 -28.35)"></path>
    <polygon class="cls-3 half-k" points="111.97 55.27 126.14 85.04 141.73 85.04 124.27 48.95 139.68 18.41 124.03 18.41 111.97 42.52 111.97 55.27" fill="#ffffff"></polygon>
    <polygon class="cls-3 y" points="184.25 18.43 161.57 103.47 145.98 103.47 152.36 79.55 139.76 32.29 146.69 18.43 151.65 18.43 160.16 50.31 168.66 18.43 184.25 18.43" fill="#ffffff"></polygon>
       
    <!-- plus -->
    <path class="cls-3 symbol-1" d="M271.48,80.08a12.63,12.63,0,0,1,4.81-9.93,33.28,33.28,0,0,0-7-12.32,12.67,12.67,0,0,1-17.43-10.3,33.37,33.37,0,0,0-14.88,0,12.68,12.68,0,0,1-17.44,10.3,33.26,33.26,0,0,0-5,.56,8.57,8.57,0,0,1-11.79-7,22.63,22.63,0,0,0-4.72,8.33,8.55,8.55,0,0,1,0,13.42,22.57,22.57,0,0,0,4.7,8.29,8.57,8.57,0,0,1,11.79,7,22.67,22.67,0,0,0,10.06,0,8.58,8.58,0,0,1,11.8-7,22.61,22.61,0,0,0,4.7-8.28,8.56,8.56,0,0,1-3.24-6.71m-17.14,9.56V86.91a7,7,0,0,1-3.41,0v7.31a14.29,14.29,0,0,1-12.48-12.48h7.31a7,7,0,0,1,0-3.41h-7.31a14.29,14.29,0,0,1,12.48-12.48v7.31a7,7,0,0,1,3.41,0V65.85a14.29,14.29,0,0,1,12.48,12.48h-7.31a7,7,0,0,1,0,3.41h7.31a14.29,14.29,0,0,1-12.48,12.48" transform="translate(-28.35 -28.35)" fill="#ffffff"></path>
   </g>
</svg>

